<?xml version="1.0" encoding="iso-8859-1"?>
<!-- Generator: Adobe Illustrator 19.0.0, SVG Export Plug-In . SVG Version: 6.00 Build 0)  -->
<svg version="1.1" id="Capa_1" xmlns="http://www.w3.org/2000/svg" xmlns:xlink="http://www.w3.org/1999/xlink" x="0px" y="0px"
	 viewBox="0 0 384 384" style="enable-background:new 0 0 384 384;" xml:space="preserve">
<g>
	<path style="fill:#AB7037;" d="M16,328c0,17.68,14.32,32,32,32h288c17.68,0,32-14.32,32-32v-16H16V328z"/>
	<path style="fill:#AB7037;" d="M192,24C48.496,24,16,95.104,16,168h352C368,95.104,336,24,192,24z"/>
</g>
<path style="fill:#482C1B;" d="M368,264H16c-8.832,0-16,7.168-16,16v16c0,8.832,7.168,16,16,16h352c8.832,0,16-7.168,16-16v-16
	C384,271.168,376.832,264,368,264z"/>
<path style="fill:#9F5332;" d="M346.32,202.336c-7.648,7.632-13.68,13.664-26.4,13.664c-12.704,0-18.736-6.016-26.368-13.664
	C285.36,194.176,275.184,184,255.84,184c-19.312,0-29.472,10.176-37.648,18.336c-7.616,7.648-13.648,13.664-26.32,13.664
	s-18.704-6.016-26.336-13.664c-8.16-8.16-18.32-18.336-37.616-18.336c-19.312,0-29.472,10.176-37.648,18.352
	C82.656,209.984,76.64,216,63.968,216s-18.704-6.016-26.336-13.664C29.472,194.176,19.312,184,0,184v16
	c12.672,0,18.704,6.016,26.336,13.664c8.16,8.16,18.32,18.336,37.632,18.336c19.296,0,29.456-10.176,37.632-18.336
	c7.616-7.648,13.648-13.664,26.32-13.664s18.688,6.016,26.32,13.648C162.4,221.824,172.56,232,191.872,232
	s29.472-10.176,37.648-18.336c7.616-7.648,13.648-13.664,26.32-13.664c12.72,0,18.752,6.032,26.384,13.664
	C290.416,221.84,300.592,232,319.92,232c19.344,0,29.52-10.176,37.696-18.336C365.264,206.016,371.296,200,384,200v-16
	C364.672,184,354.496,194.16,346.32,202.336z"/>
<g>
	<circle style="fill:#FACE5A;" cx="80" cy="120" r="16"/>
	<circle style="fill:#FACE5A;" cx="128" cy="72" r="16"/>
	<circle style="fill:#FACE5A;" cx="192" cy="120" r="16"/>
	<circle style="fill:#FACE5A;" cx="256" cy="72" r="16"/>
	<circle style="fill:#FACE5A;" cx="304" cy="120" r="16"/>
	<polygon style="fill:#FACE5A;" points="16,248 16,264 240,264 288,296 336,264 368,264 368,248 	"/>
</g>
<g>
</g>
<g>
</g>
<g>
</g>
<g>
</g>
<g>
</g>
<g>
</g>
<g>
</g>
<g>
</g>
<g>
</g>
<g>
</g>
<g>
</g>
<g>
</g>
<g>
</g>
<g>
</g>
<g>
</g>
</svg>
